<svg aria-hidden="true" style="position: absolute; width: 0; height: 0; overflow: hidden;" version="1.1" xmlns="http://www.w3.org/2000/svg" xmlns:xlink="http://www.w3.org/1999/xlink">
<defs>
<symbol id="icon-remove" viewBox="0 0 32 32">
<path d="M0 7.062l8.938 8.938-8.938 8.938 7.062 7.062 8.938-8.938 8.938 8.938 7.062-7.062-8.938-8.938 8.938-8.938-7.062-7.062-8.938 8.938-8.938-8.938-7.062 7.062z"></path>
</symbol>
<symbol id="icon-upload" viewBox="0 0 32 32">
<path d="M16.738 3.325c-0.189-0.207-0.457-0.325-0.738-0.325s-0.549 0.118-0.738 0.325l-5.333 5.833c-0.373 0.408-0.344 1.040 0.063 1.413s1.040 0.344 1.413-0.063l3.595-3.932v14.758c0 0.552 0.448 1 1 1s1-0.448 1-1v-14.758l3.595 3.932c0.373 0.408 1.005 0.436 1.413 0.063s0.436-1.005 0.063-1.413l-5.333-5.833z"></path>
<path d="M5 20c0-0.552-0.448-1-1-1s-1 0.448-1 1v0.073c-0 1.823-0 3.293 0.155 4.449 0.161 1.2 0.507 2.211 1.309 3.013s1.813 1.148 3.013 1.309c1.156 0.155 2.626 0.155 4.449 0.155h8.146c1.823 0 3.293 0 4.449-0.155 1.2-0.161 2.211-0.507 3.013-1.309s1.148-1.813 1.309-3.013c0.155-1.156 0.155-2.626 0.155-4.449v-0.073c0-0.552-0.448-1-1-1s-1 0.448-1 1c0 1.914-0.002 3.249-0.137 4.256-0.132 0.978-0.372 1.496-0.741 1.865s-0.887 0.61-1.865 0.741c-1.007 0.135-2.342 0.137-4.256 0.137h-8c-1.914 0-3.249-0.002-4.256-0.137-0.978-0.132-1.496-0.372-1.865-0.741s-0.61-0.887-0.741-1.865c-0.135-1.007-0.138-2.342-0.138-4.256z"></path>
</symbol>
<symbol id="icon-Chevron-Down" viewBox="0 0 32 32">
<path d="M16.531 20.884c-0.293 0.293-0.768 0.293-1.061 0l-7.646-7.646c-0.293-0.293-0.293-0.768 0-1.061l0.354-0.354c0.293-0.293 0.768-0.293 1.061 0l6.763 6.763 6.763-6.763c0.293-0.293 0.768-0.293 1.061 0l0.354 0.354c0.293 0.293 0.293 0.768 0 1.061l-7.647 7.646z"></path>
</symbol>
<symbol id="icon-email" viewBox="0 0 44 32">
<path d="M2.538 0h39.177c0.698 0 1.333 0.286 1.792 0.745s0.745 1.096 0.745 1.793v26.924c0 0.526-0.162 1.016-0.44 1.423-0.051 0.131-0.13 0.254-0.238 0.358-0.072 0.068-0.152 0.124-0.236 0.166-0.441 0.368-1.008 0.592-1.623 0.592h-39.177c-0.698 0-1.333-0.286-1.793-0.745-0.459-0.46-0.745-1.094-0.745-1.793v-26.924c0-0.699 0.285-1.334 0.745-1.793s1.094-0.745 1.793-0.745v0zM1.947 28.394l13.73-13.764-13.73-11.194v24.959zM17.189 15.862l-14.155 14.191h38.067l-13.527-14.189-4.46 3.8c-0.35 0.299-0.873 0.316-1.244 0.015l-4.681-3.817zM29.054 14.603l13.253 13.901v-25.191l-13.253 11.291zM3.193 1.947l19.275 15.716 18.447-15.716h-37.722z"></path>
</symbol>
<symbol id="icon-geolocation" viewBox="0 0 24 32">
<path d="M17.841 27.677v-0.008c2.966-3.255 4.971-7.234 5.779-11.151 0.818-3.964 0.417-7.875-1.445-10.943-0.552-0.906-1.227-1.742-2.029-2.471-2.284-2.086-4.927-3.083-7.604-3.104-2.781-0.021-5.57 1.008-8.013 2.953-1.063 0.846-1.935 1.826-2.617 2.901-1.732 2.721-2.258 6.070-1.695 9.549 0.552 3.432 2.164 6.995 4.727 10.208 1.857 2.336 4.219 4.484 7.031 6.273 0.26 0.167 0.578 0.146 0.813-0.026 1.904-1.156 3.599-2.586 5.055-4.182zM12.010 6.188c3.302 0 5.977 2.677 5.977 5.977 0 3.302-2.677 5.977-5.977 5.977-3.302 0-5.977-2.674-5.977-5.977-0.003-3.302 2.674-5.977 5.977-5.977v0z"></path>
</symbol>
<symbol id="icon-phone" viewBox="0 0 32 32">
<path d="M8.852 13.162c1.083 1.948 2.329 3.822 3.945 5.531 1.624 1.717 3.634 3.281 6.249 4.608l0.003 0.001 0.001-0.001c0.191 0.097 0.372 0.095 0.542 0.031 0.247-0.092 0.504-0.298 0.755-0.546 0.191-0.19 0.43-0.504 0.689-0.844 1.007-1.323 2.251-2.958 4.008-2.144 0.037 0.017 0.072 0.037 0.105 0.059l5.855 3.364c0.021 0.012 0.041 0.025 0.060 0.038 0.776 0.533 1.093 1.354 1.097 2.273 0.004 0.948-0.348 2.008-0.857 2.905-0.671 1.182-1.672 1.963-2.816 2.493-1.091 0.505-2.303 0.773-3.472 0.944-1.829 0.268-3.554 0.098-5.31-0.443-1.714-0.528-3.448-1.409-5.339-2.581l-0.138-0.085c-0.87-0.539-1.807-1.119-2.719-1.807-3.367-2.541-6.796-6.209-9.019-10.234-1.872-3.388-2.896-7.043-2.337-10.527 0.306-1.912 1.131-3.648 2.552-4.798 1.246-1.008 2.928-1.555 5.090-1.362 0.255 0.022 0.469 0.167 0.59 0.371l0.002-0.001 3.749 6.352c0.552 0.711 0.613 1.417 0.315 2.119-0.247 0.581-0.757 1.113-1.433 1.614-0.206 0.17-0.447 0.347-0.696 0.529-0.837 0.613-1.794 1.313-1.469 2.139v0zM11.691 19.74c-1.728-1.827-3.045-3.806-4.181-5.851-0.020-0.032-0.038-0.066-0.053-0.102-0.831-1.952 0.66-3.043 1.961-3.994 0.221-0.162 0.435-0.319 0.628-0.479l0.001 0.001c0.011-0.009 0.023-0.019 0.035-0.027 0.482-0.354 0.83-0.693 0.963-1.004 0.076-0.178 0.048-0.373-0.122-0.593-0.029-0.034-0.056-0.071-0.079-0.111l-3.569-6.047c-1.536-0.063-2.727 0.346-3.608 1.058-1.109 0.897-1.76 2.292-2.008 3.847-0.499 3.113 0.449 6.437 2.17 9.553 2.114 3.827 5.385 7.322 8.601 9.749 0.884 0.667 1.773 1.218 2.599 1.729l0.138 0.085c1.784 1.105 3.407 1.933 4.986 2.419 1.538 0.473 3.045 0.623 4.64 0.389 1.049-0.154 2.123-0.389 3.054-0.819 0.877-0.406 1.635-0.991 2.129-1.859 0.392-0.69 0.662-1.48 0.66-2.152-0.002-0.427-0.124-0.793-0.42-1.006l-5.823-3.345c-0.644-0.283-1.473 0.806-2.144 1.688-0.289 0.38-0.556 0.731-0.826 0.999-0.387 0.384-0.816 0.713-1.299 0.893-0.559 0.209-1.15 0.218-1.768-0.097l0.001-0.001c-2.778-1.409-4.924-3.082-6.665-4.924v0z"></path>
</symbol>
<symbol id="icon-whatsapp" viewBox="0 0 32 32">
<path d="M27.206 4.65c-2.993-2.997-6.974-4.649-11.216-4.65-8.74 0-15.854 7.113-15.857 15.856-0.002 2.795 0.729 5.523 2.117 7.927l-2.25 8.217 8.406-2.205c2.316 1.264 4.924 1.929 7.577 1.93h0.007c8.739 0 15.853-7.113 15.856-15.856 0.002-4.237-1.646-8.22-4.64-11.218v-0.001zM15.99 29.047h-0.005c-2.365-0.001-4.684-0.636-6.708-1.837l-0.481-0.286-4.988 1.308 1.331-4.864-0.313-0.499c-1.319-2.098-2.016-4.524-2.015-7.014 0.003-7.266 5.915-13.179 13.185-13.179 3.52 0.002 6.829 1.374 9.318 3.865s3.858 5.803 3.856 9.324c-0.003 7.267-5.915 13.179-13.179 13.179v0.001zM23.219 19.177c-0.396-0.198-2.344-1.156-2.707-1.289s-0.627-0.198-0.891 0.198c-0.264 0.397-1.023 1.29-1.255 1.553s-0.462 0.297-0.858 0.099c-0.396-0.198-1.673-0.617-3.186-1.966-1.178-1.051-1.973-2.348-2.204-2.745s-0.024-0.611 0.173-0.808c0.178-0.178 0.396-0.463 0.595-0.694s0.264-0.397 0.396-0.661c0.132-0.265 0.066-0.496-0.033-0.694s-0.891-2.149-1.222-2.942c-0.322-0.772-0.648-0.668-0.891-0.68-0.231-0.011-0.495-0.014-0.76-0.014s-0.693 0.099-1.057 0.496c-0.363 0.397-1.387 1.356-1.387 3.305s1.42 3.834 1.618 4.099c0.198 0.265 2.794 4.266 6.768 5.983 0.945 0.408 1.683 0.652 2.259 0.835 0.949 0.302 1.813 0.259 2.495 0.157 0.761-0.114 2.344-0.959 2.674-1.884s0.33-1.719 0.231-1.884c-0.099-0.165-0.363-0.265-0.759-0.463l0.001-0.002z"></path>
</symbol>
</defs>
</svg>
