<svg aria-hidden="true"
     style="position: absolute; width: 0; height: 0; overflow: hidden;"
     version="1.1"
     xmlns="http://www.w3.org/2000/svg"
     xmlns:xlink="http://www.w3.org/1999/xlink">

  <defs>
    <symbol id="icon-Chevron-Down" viewBox="0 0 32 32">
      <path d="M16.531 20.884c-0.293 0.293-0.768 0.293-1.061 0l-7.646-7.646c-0.293-0.293-0.293-0.768 0-1.061l0.354-0.354c0.293-0.293 0.768-0.293 1.061 0l6.763 6.763 6.763-6.763c0.293-0.293 0.768-0.293 1.061 0l0.354 0.354c0.293 0.293 0.293 0.768 0 1.061l-7.647 7.646z"></path>
    </symbol>

    <symbol id="icon-geolocation" viewBox="0 0 32 32">
      <path stroke-linejoin="round" stroke-linecap="round" stroke-miterlimit="4" stroke-width="1.3333"
            d="M20 14c0 1.061-0.421 2.078-1.172 2.828s-1.768 1.172-2.828 1.172c-1.061 0-2.078-0.421-2.828-1.172s-1.172-1.768-1.172-2.828c0-1.061 0.421-2.078 1.172-2.828s1.768-1.172 2.828-1.172c1.061 0 2.078 0.421 2.828 1.172s1.172 1.768 1.172 2.828v0z"></path>
      <path stroke-linejoin="round" stroke-linecap="round" stroke-miterlimit="4" stroke-width="1.3333"
            d="M26 14c0 9.523-10 15-10 15s-10-5.477-10-15c0-2.652 1.054-5.196 2.929-7.071s4.419-2.929 7.071-2.929c2.652 0 5.196 1.054 7.071 2.929s2.929 4.419 2.929 7.071v0z"></path>
    </symbol>

    <symbol id="icon-email" viewBox="0 0 32 32">
      <path stroke-linejoin="round" stroke-linecap="round" stroke-miterlimit="4" stroke-width="1.3333"
            d="M29 9v14c0 0.796-0.316 1.559-0.879 2.121s-1.326 0.879-2.121 0.879h-20c-0.796 0-1.559-0.316-2.121-0.879s-0.879-1.326-0.879-2.121v-14M29 9c0-0.796-0.316-1.559-0.879-2.121s-1.326-0.879-2.121-0.879h-20c-0.796 0-1.559 0.316-2.121 0.879s-0.879 1.326-0.879 2.121M29 9v0.324c0 0.512-0.131 1.016-0.381 1.463s-0.61 0.823-1.046 1.092l-10 6.153c-0.473 0.291-1.018 0.446-1.573 0.446s-1.1-0.154-1.573-0.446l-10-6.152c-0.436-0.269-0.796-0.644-1.046-1.092s-0.381-0.951-0.381-1.463v-0.325"></path>
    </symbol>

    <symbol id="icon-phone" viewBox="0 0 32 32">
      <path stroke-linejoin="round" stroke-linecap="round" stroke-miterlimit="4" stroke-width="1.3333"
            d="M3 9c0 11.045 8.955 20 20 20h3c0.796 0 1.559-0.316 2.121-0.879s0.879-1.326 0.879-2.121v-1.829c0-0.688-0.468-1.288-1.136-1.455l-5.897-1.475c-0.587-0.147-1.203 0.073-1.564 0.556l-1.293 1.724c-0.376 0.501-1.025 0.723-1.613 0.507-2.183-0.803-4.165-2.070-5.81-3.714s-2.912-3.627-3.714-5.81c-0.216-0.588 0.005-1.237 0.507-1.613l1.724-1.293c0.484-0.361 0.703-0.979 0.556-1.564l-1.475-5.897c-0.081-0.324-0.268-0.612-0.532-0.818s-0.588-0.318-0.923-0.318h-1.829c-0.796 0-1.559 0.316-2.121 0.879s-0.879 1.326-0.879 2.121v3z"></path>
    </symbol>

    <symbol id="icon-whatsapp" viewBox="0 0 32 32">
      <path d="M476.9 161.1C435 119.1 379.2 96 319.9 96C197.5 96 97.9 195.6 97.9 318C97.9 357.1 108.1 395.3 127.5 429L96 544L213.7 513.1C246.1 530.8 282.6 540.1 319.8 540.1L319.9 540.1C442.2 540.1 544 440.5 544 318.1C544 258.8 518.8 203.1 476.9 161.1zM319.9 502.7C286.7 502.7 254.2 493.8 225.9 477L219.2 473L149.4 491.3L168 423.2L163.6 416.2C145.1 386.8 135.4 352.9 135.4 318C135.4 216.3 218.2 133.5 320 133.5C369.3 133.5 415.6 152.7 450.4 187.6C485.2 222.5 506.6 268.8 506.5 318.1C506.5 419.9 421.6 502.7 319.9 502.7zM421.1 364.5C415.6 361.7 388.3 348.3 383.2 346.5C378.1 344.6 374.4 343.7 370.7 349.3C367 354.9 356.4 367.3 353.1 371.1C349.9 374.8 346.6 375.3 341.1 372.5C308.5 356.2 287.1 343.4 265.6 306.5C259.9 296.7 271.3 297.4 281.9 276.2C283.7 272.5 282.8 269.3 281.4 266.5C280 263.7 268.9 236.4 264.3 225.3C259.8 214.5 255.2 216 251.8 215.8C248.6 215.6 244.9 215.6 241.2 215.6C237.5 215.6 231.5 217 226.4 222.5C221.3 228.1 207 241.5 207 268.8C207 296.1 226.9 322.5 229.6 326.2C232.4 329.9 268.7 385.9 324.4 410C359.6 425.2 373.4 426.5 391 423.9C401.7 422.3 423.8 410.5 428.4 397.5C433 384.5 433 373.4 431.6 371.1C430.3 368.6 426.6 367.2 421.1 364.5z"/>
    </symbol>

  </defs>
</svg>
